HIERARCHY
ROOT Hips
{
 OFFSET 0.000000 0.000000 0.000000
 CHANNELS 6 Xposition Yposition Zposition Yrotation Xrotation Zrotation
 JOINT Chest
 {
  OFFSET 0.000000 9.857222 0.000240
  CHANNELS 3 Yrotation Xrotation Zrotation
  JOINT Chest2
  {
   OFFSET 0.000000 10.876940 -0.000436
   CHANNELS 3 Yrotation Xrotation Zrotation
   JOINT Chest3
   {
    OFFSET 0.000000 9.827798 0.000000
    CHANNELS 3 Yrotation Xrotation Zrotation
    JOINT Chest4
    {
     OFFSET 0.000000 9.827798 0.000000
     CHANNELS 3 Yrotation Xrotation Zrotation
     JOINT Neck
     {
      OFFSET 0.000000 13.831992 0.000000
      CHANNELS 3 Yrotation Xrotation Zrotation
      JOINT Head
      {
       OFFSET 0.000000 9.147643 -0.001036
       CHANNELS 3 Yrotation Xrotation Zrotation
       End Site
       {
        OFFSET 0.000000 17.515799 -0.000541
       }
      }
     }
     JOINT RightCollar
     {
      OFFSET -3.001579 7.717577 0.000000
      CHANNELS 3 Yrotation Xrotation Zrotation
      JOINT RightShoulder
      {
       OFFSET -14.002642 0.000000 0.000000
       CHANNELS 3 Yrotation Xrotation Zrotation
       JOINT RightElbow
       {
        OFFSET -30.053852 0.000000 0.000000
        CHANNELS 3 Yrotation Xrotation Zrotation
        JOINT RightWrist
        {
         OFFSET -24.564923 0.000000 -0.000000
         CHANNELS 3 Yrotation Xrotation Zrotation
         End Site
         {
          OFFSET -18.334355 0.000000 0.000000
         }
        }
       }
      }
     }
     JOINT LeftCollar
     {
      OFFSET 3.001579 7.717577 0.000000
      CHANNELS 3 Yrotation Xrotation Zrotation
      JOINT LeftShoulder
      {
       OFFSET 14.002642 0.000000 0.000000
       CHANNELS 3 Yrotation Xrotation Zrotation
       JOINT LeftElbow
       {
        OFFSET 30.053852 0.000000 0.000000
        CHANNELS 3 Yrotation Xrotation Zrotation
        JOINT LeftWrist
        {
         OFFSET 24.564923 0.000000 -0.000000
         CHANNELS 3 Yrotation Xrotation Zrotation
         End Site
         {
          OFFSET 18.334355 0.000000 0.000000
         }
        }
       }
      }
     }
    }
   }
  }
 }
 JOINT RightHip
 {
  OFFSET -8.003235 -0.001175 -0.000120
  CHANNELS 3 Yrotation Xrotation Zrotation
  JOINT RightKnee
  {
   OFFSET 0.000000 -41.759727 0.000113
   CHANNELS 3 Yrotation Xrotation Zrotation
   JOINT RightAnkle
   {
    OFFSET 0.000000 -40.728748 0.000159
    CHANNELS 3 Yrotation Xrotation Zrotation
    JOINT RightToe
    {
     OFFSET 0.000000 -6.515296 14.732841
     CHANNELS 3 Yrotation Xrotation Zrotation
     End Site
     {
      OFFSET 0.000000 -1.502839 6.412115
     }
    }
   }
  }
 }
 JOINT LeftHip
 {
  OFFSET 8.003235 -0.001175 -0.000120
  CHANNELS 3 Yrotation Xrotation Zrotation
  JOINT LeftKnee
  {
   OFFSET 0.000000 -41.759727 0.000113
   CHANNELS 3 Yrotation Xrotation Zrotation
   JOINT LeftAnkle
   {
    OFFSET 0.000000 -40.728748 0.000159
    CHANNELS 3 Yrotation Xrotation Zrotation
    JOINT LeftToe
    {
     OFFSET 0.000000 -6.515296 14.732841
     CHANNELS 3 Yrotation Xrotation Zrotation
     End Site
     {
      OFFSET 0.000000 -1.502839 6.412115
     }
    }
   }
  }
 }
}
MOTION
Frames: 15
Frame Time: 0.016667
0.000000 88.822259 0.000000 0.000000 -5.826342 0.000000 0.000000 11.116423 0.000000 0.000000 -5.290081 0.000000 0.000000 0.000000 0.000000 0.000000 0.000000 0.000000 0.000000 12.665069 0.000000 0.000000 0.575450 0.000000 0.000000 0.000000 0.000000 0.000000 0.000000 0.000000 2.337306 0.000000 0.000000 -2.337306 0.000000 0.000000 0.000000 0.000000 0.000000 0.000000 0.000000 0.000000 -2.337306 0.000000 0.000000 2.337306 0.000000 0.000000 0.000000 8.578828 0.000000 0.000000 1.905768 0.000000 0.000000 -4.658254 0.000000 0.000000 0.000000 0.000000 0.000000 8.578828 0.000000 0.000000 1.905768 0.000000 0.000000 -4.658254 0.000000 0.000000 0.000000 0.000000
3.934381 90.264881 17.659858 -29.351317 -9.707367 -0.289741 -0.345492 -0.416625 0.962075 -0.060404 -0.111053 0.254612 -0.060404 -0.111053 0.254612 -0.045256 -0.083315 0.190948 3.625895 20.641573 -1.940892 7.166925 2.349790 -4.602277 9.798495 16.951709 12.714920 32.861673 4.558317 81.373406 27.224386 -8.882596 3.168773 -2.619802 -4.134975 -11.874000 -19.164977 19.507547 -20.691334 -40.184811 24.492359 -80.384291 -48.415063 -13.206502 5.894700 11.789253 -1.787016 7.596501 -7.212078 13.277353 -2.859247 2.914332 1.540985 0.709705 1.231951 -5.032930 0.305683 -0.218588 0.076624 -0.224636 -6.937482 17.304748 0.618409 7.766903 0.768200 -4.448738 -0.401041 -7.359808 1.979377 0.898269 0.044804 0.405665
3.902277 90.244762 17.783688 -29.231918 -9.483223 -0.298150 -0.356428 -0.679161 0.911802 -0.060170 -0.225135 0.249111 -0.060170 -0.225135 0.249111 -0.045035 -0.168876 0.186811 4.053747 20.443374 -1.937308 7.954495 2.013101 -4.734948 9.818148 16.720128 12.791618 32.505933 4.809576 81.738755 27.006913 -9.249950 3.228195 -2.575522 -4.238553 -11.900208 -19.100562 19.196116 -20.624765 -40.130408 24.875602 -80.642359 -47.376656 -11.496265 5.103471 11.652179 -1.958802 7.673322 -7.328974 13.233294 -2.902329 3.036667 1.362235 0.752654 1.124591 -5.039823 0.356942 -0.216333 0.090409 -0.232717 -6.882386 17.307855 0.580305 7.294621 0.420428 -4.346789 -0.106029 -7.337659 1.952357 0.861672 0.093495 0.401083
3.886197 90.223333 17.896797 -29.100065 -9.278259 -0.329402 -0.383367 -0.931910 0.870767 -0.054479 -0.319250 0.248767 -0.054479 -0.319250 0.248767 -0.040729 -0.239460 0.186546 4.371189 20.304441 -1.913080 8.532759 1.777883 -4.794858 9.845685 16.525861 12.882910 32.171588 4.995736 81.947448 26.753367 -9.679289 3.367078 -2.522544 -4.319330 -11.855329 -19.059597 18.940674 -20.597282 -39.969860 25.187732 -80.713008 -46.417479 -9.801174 4.351121 11.547055 -2.130096 7.908889 -7.434490 13.180008 -2.924049 3.130471 1.232114 0.771878 1.033063 -5.064139 0.430864 -0.206829 0.103635 -0.235464 -6.989817 17.301552 0.527141 6.880122 0.114307 -4.244163 0.185155 -7.349551 1.914939 0.860094 0.161440 0.412025
3.874470 90.200924 17.994844 -29.066175 -9.158389 -0.376904 -0.368161 -1.099070 0.863017 -0.040153 -0.387789 0.254173 -0.040153 -0.387789 0.254173 -0.029953 -0.290858 0.190603 4.591552 20.197267 -1.879609 8.930229 1.593805 -4.807584 9.928211 16.426893 12.997867 31.852547 5.064026 81.925407 26.400499 -10.012489 3.636452 -2.458788 -4.365954 -11.720942 -19.047517 18.816163 -20.643649 -39.623509 25.342083 -80.481032 -45.620185 -8.429692 3.702963 11.519544 -2.201864 8.201285 -7.420662 13.164896 -2.904594 3.124952 1.162855 0.789944 1.040516 -5.105385 0.487333 -0.196245 0.125682 -0.234717 -7.067776 17.362805 0.490457 6.520496 -0.152259 -4.161557 0.478398 -7.365456 1.895718 0.847751 0.213883 0.414706
3.865600 90.182056 18.077729 -29.128114 -9.144028 -0.415790 -0.325128 -1.164791 0.876176 -0.018624 -0.417017 0.267271 -0.018624 -0.417017 0.267271 -0.013785 -0.312771 0.200440 4.724581 20.095986 -1.857187 9.171972 1.414896 -4.814379 10.074138 16.359249 13.105003 31.603998 4.996981 81.730239 25.874995 -10.088084 4.127932 -2.337969 -4.465586 -11.547590 -19.047007 18.676883 -20.743308 -39.174349 25.443097 -80.007272 -45.069256 -7.621810 3.138353 11.553222 -2.278931 8.506124 -7.311222 13.234398 -2.877030 3.051502 1.106222 0.794024 1.045217 -5.138459 0.541391 -0.182000 0.150269 -0.226604 -7.033498 17.507075 0.473400 6.207544 -0.376143 -4.114329 0.750506 -7.377767 1.903158 0.815404 0.247085 0.403567
3.862571 90.167096 18.160545 -29.281096 -9.165483 -0.430501 -0.233466 -1.159170 0.887548 0.012478 -0.429832 0.280331 0.012478 -0.429832 0.280331 0.009555 -0.322369 0.210256 4.776109 19.997711 -1.849115 9.269619 1.236313 -4.822933 10.248789 16.281513 13.224128 31.495201 4.798228 81.375266 25.087580 -9.981577 4.768013 -2.131066 -4.561084 -11.298925 -19.036498 18.522713 -20.802454 -38.734954 25.523678 -79.314473 -44.866920 -7.732656 2.559253 11.630191 -2.193283 8.823330 -7.162304 13.313767 -2.870090 3.001406 1.069062 0.789753 1.050605 -5.173623 0.593518 -0.168073 0.179981 -0.212058 -6.854818 17.649970 0.432231 5.932321 -0.521088 -4.016130 0.974361 -7.414153 1.904913 0.750792 0.265744 0.372675
3.870485 90.155466 18.237809 -29.500352 -9.253507 -0.414203 -0.110650 -1.082363 0.878897 0.051215 -0.419828 0.285394 0.051215 -0.419828 0.285394 0.038607 -0.314847 0.214080 4.765219 19.899563 -1.852849 9.257214 1.053945 -4.834318 10.412087 16.167206 13.346352 31.589367 4.459161 80.880168 23.966716 -9.682837 5.604603 -1.853123 -4.696298 -11.006665 -19.030963 18.312882 -20.752719 -38.305084 25.506335 -78.587647 -44.791930 -8.454756 1.983636 11.714043 -1.660337 9.006972 -7.063017 13.428140 -2.927878 3.054116 1.051924 0.797579 1.064357 -5.206935 0.640033 -0.161235 0.210057 -0.195927 -6.570910 17.827079 0.306655 5.838107 -0.602045 -3.839211 1.077526 -7.436773 1.902890 0.658415 0.247069 0.324592
3.886678 90.151143 18.303391 -29.723689 -9.365097 -0.401150 -0.005253 -0.974835 0.882245 0.090802 -0.382014 0.285426 0.090802 -0.382014 0.285426 0.068280 -0.286468 0.214126 4.709393 19.792963 -1.871754 9.168104 0.853630 -4.860410 10.596639 16.023771 13.482404 32.082566 3.954716 80.280310 22.553583 -9.146129 6.513466 -1.530802 -5.020606 -10.605588 -18.992296 18.185031 -20.584971 -37.969538 25.238506 -77.757560 -44.503089 -8.715958 1.118207 11.671389 -1.041704 9.000570 -7.058439 13.545216 -3.012970 3.166467 1.042162 0.817508 1.120011 -5.219424 0.673598 -0.160753 0.227952 -0.177999 -6.209345 17.983153 0.268925 5.762025 -0.604021 -3.731608 1.038960 -7.476783 1.886579 0.650760 0.232803 0.310192
3.881998 90.154856 18.319278 -29.889614 -9.467539 -0.429749 0.053330 -0.870099 0.930702 0.121712 -0.326214 0.280833 0.121712 -0.326214 0.280833 0.091433 -0.244605 0.210689 4.628575 19.683166 -1.900883 9.036757 0.646282 -4.897677 10.840590 15.909772 13.643319 33.214554 3.289845 79.599059 20.694102 -8.553090 7.455037 -0.976782 -5.327674 -9.775714 -18.925617 18.076423 -20.325132 -37.751312 24.789539 -76.810216 -43.861196 -7.881358 -0.184359 11.414211 -0.747707 8.742999 -7.156591 13.625690 -3.023994 3.310110 1.064059 0.801499 1.155151 -5.207029 0.686686 -0.170236 0.221901 -0.157404 -5.952999 18.066393 0.377223 5.711266 -0.488855 -3.757326 0.873104 -7.560119 1.833926 0.803220 0.235751 0.367556
3.897099 90.168185 18.280995 -30.003252 -9.578614 -0.407731 0.067522 -0.767357 0.920383 0.149528 -0.251064 0.270769 0.149528 -0.251064 0.270769 0.112257 -0.188232 0.203138 4.539053 19.570027 -1.922550 8.887430 0.431349 -4.918775 11.061828 16.105413 13.793696 35.244832 2.269962 78.814034 18.476388 -7.599780 8.515559 -0.206404 -5.577836 -8.518283 -18.981323 18.151233 -20.114018 -37.726250 24.272749 -75.598381 -43.168097 -6.420199 -1.530100 10.941918 -0.649460 8.186785 -7.379206 13.659938 -3.091064 3.505280 1.105874 0.756652 1.250425 -5.168699 0.691513 -0.177839 0.214271 -0.129105 -6.168439 18.057575 0.318762 6.142258 -0.287812 -3.812475 0.722177 -7.573866 1.815415 0.883631 0.193758 0.395972
3.922959 90.192419 18.191173 -30.098947 -9.746428 -0.366865 0.021302 -0.637461 0.902909 0.162397 -0.150442 0.269066 0.162397 -0.150442 0.269066 0.121864 -0.112760 0.201839 4.475244 19.453110 -1.941693 8.784452 0.211286 -4.943261 11.237077 16.431491 13.807514 37.952852 1.214166 77.803798 16.240999 -6.116250 9.359411 0.615966 -5.815474 -6.672314 -19.185508 18.379264 -20.057385 -37.943420 23.811982 -74.175213 -42.621463 -4.749642 -2.548092 10.333709 -1.010952 7.445120 -7.609709 13.704849 -3.137737 3.684837 1.181724 0.674526 1.294192 -5.112068 0.675529 -0.176944 0.200612 -0.091078 -6.496063 18.048975 0.212411 6.811299 -0.030488 -3.866318 0.449411 -7.569979 1.797727 0.944974 0.150162 0.418130
3.926936 90.222294 18.055113 -30.189600 -9.942794 -0.357637 -0.028622 -0.482427 0.913307 0.159754 -0.054691 0.272997 0.159754 -0.054691 0.272997 0.119840 -0.040947 0.204762 4.432114 19.352729 -1.939835 8.711622 0.021644 -4.934397 11.402614 16.826170 13.747368 40.950573 0.280250 76.451137 14.290455 -4.375941 10.157215 1.388198 -6.080171 -4.948220 -19.504666 18.693984 -20.039308 -38.531686 23.381468 -72.697830 -42.289446 -4.073435 -2.886161 9.832190 -1.449965 6.669171 -7.803960 13.761123 -3.094087 3.846908 1.264927 0.532459 1.339915 -5.012384 0.658518 -0.173721 0.161127 -0.055064 -6.976723 18.028724 0.135229 7.692215 0.281524 -3.941713 0.167349 -7.551987 1.755635 1.006555 0.096929 0.440223
3.924669 90.251292 17.888848 -30.297306 -10.169169 -0.351923 -0.084142 -0.313179 0.925581 0.145284 0.033374 0.279955 0.145284 0.033374 0.279955 0.108948 0.025097 0.209958 4.415454 19.280986 -1.923720 8.680809 -0.114073 -4.905399 11.584278 17.159708 13.679343 43.924506 -0.601492 74.950562 12.523291 -2.909196 10.594828 1.834358 -6.347836 -3.517182 -19.823989 19.065782 -20.017938 -39.132129 22.767572 -70.900502 -42.072754 -4.992809 -2.757159 9.539563 -1.259201 5.843350 -8.005242 13.854987 -3.046557 3.951518 1.308396 0.415805 1.435354 -4.889892 0.609681 -0.176466 0.131699 -0.026681 -7.375032 18.028792 0.089994 8.486980 0.593086 -4.004028 -0.057096 -7.533630 1.704250 1.044652 0.058381 0.452181
3.920160 90.277243 17.720824 -30.408096 -10.388850 -0.329043 -0.138243 -0.154924 0.920834 0.122735 0.101139 0.287336 0.122735 0.101139 0.287336 0.092004 0.075912 0.215482 4.414615 19.253151 -1.899369 8.673464 -0.167895 -4.862840 11.664553 17.543950 13.571383 46.536752 -1.550774 73.056669 11.270279 -1.865997 11.020870 1.653135 -6.533097 -2.712446 -20.078447 19.535656 -20.009944 -39.753943 22.106759 -68.767980 -41.973775 -6.455066 -2.438699 9.337342 -0.852827 5.175106 -8.269546 13.954724 -3.037670 4.092280 1.316345 0.305993 1.533856 -4.768808 0.564827 -0.177612 0.119603 -0.006952 -7.606514 18.026909 0.045445 9.063149 0.879837 -4.013681 -0.190360 -7.514140 1.662723 1.017858 0.029795 0.435695
